<?xml version="1.0" encoding="UTF-8"?>
<!DOCTYPE svg PUBLIC "-//W3C//DTD SVG 1.1//EN" "http://www.w3.org/Graphics/SVG/1.1/DTD/svg11.dtd">
<svg width="160mm" height="90mm" viewBox="0 0 16000 9000" version="1.1" xmlns="http://www.w3.org/2000/svg" stroke-width="28.222" stroke-linejoin="round" xml:space="preserve">
 <path fill="rgb(255,255,255)" stroke="none" d="M 8000,8999 L 0,8999 0,0 15999,0 15999,8999 8000,8999 Z"/>
 <path fill="none" stroke="rgb(179,179,179)" stroke-linejoin="round" d="M 8670,7402 L 2033,7402 2033,326 15307,326 15307,7402 8670,7402 Z"/>
 <path fill="none" stroke="rgb(179,179,179)" stroke-linejoin="round" d="M 15307,7401 L 2033,7401"/>
 <path fill="none" stroke="rgb(179,179,179)" stroke-linejoin="round" d="M 15307,6516 L 2033,6516"/>
 <path fill="none" stroke="rgb(179,179,179)" stroke-linejoin="round" d="M 15307,5631 L 2033,5631"/>
 <path fill="none" stroke="rgb(179,179,179)" stroke-linejoin="round" d="M 15307,4747 L 2033,4747"/>
 <path fill="none" stroke="rgb(179,179,179)" stroke-linejoin="round" d="M 15307,3863 L 2033,3863"/>
 <path fill="none" stroke="rgb(179,179,179)" stroke-linejoin="round" d="M 15307,2978 L 2033,2978"/>
 <path fill="none" stroke="rgb(179,179,179)" stroke-linejoin="round" d="M 15307,2094 L 2033,2094"/>
 <path fill="none" stroke="rgb(179,179,179)" stroke-linejoin="round" d="M 15307,1209 L 2033,1209"/>
 <path fill="none" stroke="rgb(179,179,179)" stroke-linejoin="round" d="M 15307,325 L 2033,325"/>
 <path fill="none" stroke="rgb(179,179,179)" stroke-linejoin="round" d="M 2033,7551 L 2033,7401"/>
 <path fill="none" stroke="rgb(179,179,179)" stroke-linejoin="round" d="M 2033,7551 L 2033,7401"/>
 <path fill="none" stroke="rgb(179,179,179)" stroke-linejoin="round" d="M 6458,7551 L 6458,7401"/>
 <path fill="none" stroke="rgb(179,179,179)" stroke-linejoin="round" d="M 6458,7551 L 6458,7401"/>
 <path fill="none" stroke="rgb(179,179,179)" stroke-linejoin="round" d="M 10882,7551 L 10882,7401"/>
 <path fill="none" stroke="rgb(179,179,179)" stroke-linejoin="round" d="M 10882,7551 L 10882,7401"/>
 <path fill="none" stroke="rgb(179,179,179)" stroke-linejoin="round" d="M 15307,7551 L 15307,7401"/>
 <path fill="none" stroke="rgb(179,179,179)" stroke-linejoin="round" d="M 15307,7551 L 15307,7401"/>
 <path fill="none" stroke="rgb(179,179,179)" stroke-linejoin="round" d="M 2033,7401 L 15307,7401"/>
 <path fill="none" stroke="rgb(179,179,179)" stroke-linejoin="round" d="M 1883,7401 L 2033,7401"/>
 <path fill="none" stroke="rgb(179,179,179)" stroke-linejoin="round" d="M 1883,7401 L 2033,7401"/>
 <path fill="none" stroke="rgb(179,179,179)" stroke-linejoin="round" d="M 1883,6516 L 2033,6516"/>
 <path fill="none" stroke="rgb(179,179,179)" stroke-linejoin="round" d="M 1883,6516 L 2033,6516"/>
 <path fill="none" stroke="rgb(179,179,179)" stroke-linejoin="round" d="M 1883,5631 L 2033,5631"/>
 <path fill="none" stroke="rgb(179,179,179)" stroke-linejoin="round" d="M 1883,5631 L 2033,5631"/>
 <path fill="none" stroke="rgb(179,179,179)" stroke-linejoin="round" d="M 1883,4747 L 2033,4747"/>
 <path fill="none" stroke="rgb(179,179,179)" stroke-linejoin="round" d="M 1883,4747 L 2033,4747"/>
 <path fill="none" stroke="rgb(179,179,179)" stroke-linejoin="round" d="M 1883,3863 L 2033,3863"/>
 <path fill="none" stroke="rgb(179,179,179)" stroke-linejoin="round" d="M 1883,3863 L 2033,3863"/>
 <path fill="none" stroke="rgb(179,179,179)" stroke-linejoin="round" d="M 1883,2978 L 2033,2978"/>
 <path fill="none" stroke="rgb(179,179,179)" stroke-linejoin="round" d="M 1883,2978 L 2033,2978"/>
 <path fill="none" stroke="rgb(179,179,179)" stroke-linejoin="round" d="M 1883,2094 L 2033,2094"/>
 <path fill="none" stroke="rgb(179,179,179)" stroke-linejoin="round" d="M 1883,2094 L 2033,2094"/>
 <path fill="none" stroke="rgb(179,179,179)" stroke-linejoin="round" d="M 1883,1209 L 2033,1209"/>
 <path fill="none" stroke="rgb(179,179,179)" stroke-linejoin="round" d="M 1883,1209 L 2033,1209"/>
 <path fill="none" stroke="rgb(179,179,179)" stroke-linejoin="round" d="M 1883,325 L 2033,325"/>
 <path fill="none" stroke="rgb(179,179,179)" stroke-linejoin="round" d="M 1883,325 L 2033,325"/>
 <path fill="none" stroke="rgb(179,179,179)" stroke-linejoin="round" d="M 2033,7401 L 2033,325"/>
 <path fill="rgb(0,69,134)" stroke="none" d="M 14788,4816 L 14788,5066 15038,5066 15038,4816 14788,4816 Z"/>
 <path fill="none" stroke="rgb(0,69,134)" stroke-linejoin="round" d="M 14788,4816 L 14788,5066 15038,5066 15038,4816 14788,4816 Z"/>
 <path fill="rgb(0,69,134)" stroke="none" d="M 12306,5046 L 12306,5296 12556,5296 12556,5046 12306,5046 Z"/>
 <path fill="none" stroke="rgb(0,69,134)" stroke-linejoin="round" d="M 12306,5046 L 12306,5296 12556,5296 12556,5046 12306,5046 Z"/>
 <path fill="rgb(0,69,134)" stroke="none" d="M 12615,5382 L 12615,5632 12865,5632 12865,5382 12615,5382 Z"/>
 <path fill="none" stroke="rgb(0,69,134)" stroke-linejoin="round" d="M 12615,5382 L 12615,5632 12865,5632 12865,5382 12615,5382 Z"/>
 <path fill="rgb(0,69,134)" stroke="none" d="M 10991,606 L 10991,856 11241,856 11241,606 10991,606 Z"/>
 <path fill="none" stroke="rgb(0,69,134)" stroke-linejoin="round" d="M 10991,606 L 10991,856 11241,856 11241,606 10991,606 Z"/>
 <path fill="rgb(0,69,134)" stroke="none" d="M 11170,4958 L 11170,5208 11420,5208 11420,4958 11170,4958 Z"/>
 <path fill="none" stroke="rgb(0,69,134)" stroke-linejoin="round" d="M 11170,4958 L 11170,5208 11420,5208 11420,4958 11170,4958 Z"/>
 <path fill="rgb(0,69,134)" stroke="none" d="M 5000,3030 L 5000,3280 5250,3280 5250,3030 5000,3030 Z"/>
 <path fill="none" stroke="rgb(0,69,134)" stroke-linejoin="round" d="M 5000,3030 L 5000,3280 5250,3280 5250,3030 5000,3030 Z"/>
 <text class="TextShape"><tspan class="TextParagraph" font-family="Liberation Sans, sans-serif" font-size="353px" font-weight="400"><tspan class="TextPosition" x="1940" y="7889"><tspan fill="rgb(0,0,0)" stroke="none">1</tspan></tspan></tspan></text>
 <text class="TextShape"><tspan class="TextParagraph" font-family="Liberation Sans, sans-serif" font-size="353px" font-weight="400"><tspan class="TextPosition" x="6273" y="7889"><tspan fill="rgb(0,0,0)" stroke="none">10</tspan></tspan></tspan></text>
 <text class="TextShape"><tspan class="TextParagraph" font-family="Liberation Sans, sans-serif" font-size="353px" font-weight="400"><tspan class="TextPosition" x="10605" y="7889"><tspan fill="rgb(0,0,0)" stroke="none">100</tspan></tspan></tspan></text>
 <text class="TextShape"><tspan class="TextParagraph" font-family="Liberation Sans, sans-serif" font-size="353px" font-weight="400"><tspan class="TextPosition" x="14937" y="7889"><tspan fill="rgb(0,0,0)" stroke="none">1000</tspan></tspan></tspan></text>
 <text class="TextShape"><tspan class="TextParagraph" font-family="Liberation Sans, sans-serif" font-size="353px" font-weight="400"><tspan class="TextPosition" x="1598" y="7495"><tspan fill="rgb(0,0,0)" stroke="none">0</tspan></tspan></tspan></text>
 <text class="TextShape"><tspan class="TextParagraph" font-family="Liberation Sans, sans-serif" font-size="353px" font-weight="400"><tspan class="TextPosition" x="1413" y="6610"><tspan fill="rgb(0,0,0)" stroke="none">50</tspan></tspan></tspan></text>
 <text class="TextShape"><tspan class="TextParagraph" font-family="Liberation Sans, sans-serif" font-size="353px" font-weight="400"><tspan class="TextPosition" x="1227" y="5725"><tspan fill="rgb(0,0,0)" stroke="none">100</tspan></tspan></tspan></text>
 <text class="TextShape"><tspan class="TextParagraph" font-family="Liberation Sans, sans-serif" font-size="353px" font-weight="400"><tspan class="TextPosition" x="1227" y="4841"><tspan fill="rgb(0,0,0)" stroke="none">150</tspan></tspan></tspan></text>
 <text class="TextShape"><tspan class="TextParagraph" font-family="Liberation Sans, sans-serif" font-size="353px" font-weight="400"><tspan class="TextPosition" x="1227" y="3956"><tspan fill="rgb(0,0,0)" stroke="none">200</tspan></tspan></tspan></text>
 <text class="TextShape"><tspan class="TextParagraph" font-family="Liberation Sans, sans-serif" font-size="353px" font-weight="400"><tspan class="TextPosition" x="1227" y="3071"><tspan fill="rgb(0,0,0)" stroke="none">250</tspan></tspan></tspan></text>
 <text class="TextShape"><tspan class="TextParagraph" font-family="Liberation Sans, sans-serif" font-size="353px" font-weight="400"><tspan class="TextPosition" x="1227" y="2187"><tspan fill="rgb(0,0,0)" stroke="none">300</tspan></tspan></tspan></text>
 <text class="TextShape"><tspan class="TextParagraph" font-family="Liberation Sans, sans-serif" font-size="353px" font-weight="400"><tspan class="TextPosition" x="1227" y="1302"><tspan fill="rgb(0,0,0)" stroke="none">350</tspan></tspan></tspan></text>
 <text class="TextShape"><tspan class="TextParagraph" font-family="Liberation Sans, sans-serif" font-size="353px" font-weight="400"><tspan class="TextPosition" x="1227" y="418"><tspan fill="rgb(0,0,0)" stroke="none">400</tspan></tspan></tspan></text>
 <text class="TextShape"><tspan class="TextParagraph" font-family="Liberation Sans, sans-serif" font-size="353px" font-weight="400"><tspan class="TextPosition" x="15139" y="5035"><tspan fill="rgb(0,0,0)" stroke="none">Ruby</tspan></tspan></tspan></text>
 <text class="TextShape"><tspan class="TextParagraph" font-family="Liberation Sans, sans-serif" font-size="353px" font-weight="400"><tspan class="TextPosition" x="12657" y="5265"><tspan fill="rgb(0,0,0)" stroke="none">Crystal</tspan></tspan></tspan></text>
 <text class="TextShape"><tspan class="TextParagraph" font-family="Liberation Sans, sans-serif" font-size="353px" font-weight="400"><tspan class="TextPosition" x="12966" y="5601"><tspan fill="rgb(0,0,0)" stroke="none">Elixir</tspan></tspan></tspan></text>
 <text class="TextShape"><tspan class="TextParagraph" font-family="Liberation Sans, sans-serif" font-size="353px" font-weight="400"><tspan class="TextPosition" x="11342" y="824"><tspan fill="rgb(0,0,0)" stroke="none">Java</tspan></tspan></tspan></text>
 <text class="TextShape"><tspan class="TextParagraph" font-family="Liberation Sans, sans-serif" font-size="353px" font-weight="400"><tspan class="TextPosition" x="11521" y="5177"><tspan fill="rgb(0,0,0)" stroke="none">Go</tspan></tspan></tspan></text>
 <text class="TextShape"><tspan class="TextParagraph" font-family="Liberation Sans, sans-serif" font-size="353px" font-weight="400"><tspan class="TextPosition" x="5351" y="3248"><tspan fill="rgb(0,0,0)" stroke="none">C++</tspan></tspan></tspan></text>
 <text class="TextShape"><tspan class="TextParagraph" font-family="Liberation Sans, sans-serif" font-size="318px" font-weight="400"><tspan class="TextPosition" x="7619" y="8432"><tspan fill="rgb(0,0,0)" stroke="none">Speed (ms)</tspan></tspan></tspan></text>
 <text class="TextShape" transform="translate(758,5477) rotate(-90) translate(-758,-5477)"><tspan class="TextParagraph" font-family="Liberation Sans, sans-serif" font-size="318px" font-weight="400"><tspan class="TextPosition" x="758" y="5477"><tspan fill="rgb(0,0,0)" stroke="none">SLoC as per Github</tspan></tspan></tspan></text>
</svg>